<?xml version="1.0" encoding="UTF-8"?>
<svg xmlns="http://www.w3.org/2000/svg" width="1024" height="1024" viewBox="0 0 1024 1024" role="img" aria-labelledby="title desc">
  <title id="title">URLAB Lab Avatar</title>
  <desc id="desc">Square avatar with dark gradient background and official lambda mark.</desc>

  <defs>
    <linearGradient id="bg" x1="0" y1="0" x2="1" y2="1">
      <stop offset="0%" stop-color="#0B132B"/>
      <stop offset="100%" stop-color="#111827"/>
    </linearGradient>
    <radialGradient id="glow" cx="50%" cy="42%" r="56%">
      <stop offset="0%" stop-color="#3B82F6" stop-opacity="0.22"/>
      <stop offset="100%" stop-color="#3B82F6" stop-opacity="0"/>
    </radialGradient>
  </defs>

  <rect x="0" y="0" width="1024" height="1024" fill="url(#bg)"/>
  <rect x="0" y="0" width="1024" height="1024" fill="url(#glow)"/>

  <g transform="translate(512 512) scale(1.75) translate(-1000 -850)">
    <path fill="#F5F7FA" d="M1000.00 698.77 C1013.00 698.77 1022.00 703.00 1027.00 714.00 C1068.00 815.00 1132.00 912.00 1194.01 993.04 H1092.00 C1057.00 945.00 1028.00 895.00 1000.00 840.00 C972.00 895.00 943.00 945.00 908.00 993.04 H804.69 C867.00 912.00 931.00 815.00 972.00 714.00 C977.00 703.00 986.00 698.77 1000.00 698.77 Z"/>
  </g>
</svg>
