<?xml version="1.0" encoding="UTF-8"?>
<svg xmlns="http://www.w3.org/2000/svg" viewBox="400 560 740 150" preserveAspectRatio="xMidYMid meet" role="img" aria-labelledby="title desc">
  <title id="title">URLAB Secondary Logo</title>
  <desc id="desc">Official secondary wordmark URLAB.</desc>
  <g transform="translate(0,1024) scale(0.1,-0.1)" fill="#E9EEF7" stroke="none">
    <path d="M4183 4433 c-21 -8 -18 -646 2 -704 30 -84 114 -144 260 -185 91 -25 477 -32 605 -10 183 31 294 110 319 226 7 31 11 174 11 360 l0 310 -22 5 c-13 3 -63 5 -113 3 l-90 -3 -5 -320 c-4 -234 -8 -326 -18 -342 -31 -55 -154 -83 -355 -83 -218 1 -330 29 -362 91 -15 28 -17 64 -16 262 1 127 -1 268 -5 314 l-7 83 -96 -1 c-53 0 -102 -3 -108 -6z"/>
    <path d="M5651 4426 c-8 -9 -10 -136 -9 -452 l3 -439 113 -3 112 -3 0 146 0 145 263 0 262 0 115 -131 c69 -79 128 -137 147 -145 22 -9 73 -14 156 -14 l124 0 -149 147 c-81 81 -148 150 -148 154 0 3 19 9 41 13 65 10 136 45 169 82 39 45 54 102 53 204 0 105 -27 175 -86 225 -87 75 -167 85 -713 85 -361 0 -444 -2 -453 -14z m948 -179 c45 -16 72 -54 78 -110 7 -63 -12 -114 -50 -135 -29 -15 -69 -17 -392 -17 l-360 0 -3 124 c-1 69 0 131 2 138 7 18 674 18 725 0z"/>
    <path d="M8848 4423 c-9 -10 -38 -54 -65 -98 -210 -338 -478 -763 -491 -777 -14 -17 -8 -18 117 -18 l132 0 65 103 c36 56 132 210 214 342 81 132 155 249 163 260 13 18 16 16 53 -43 21 -35 80 -127 129 -206 50 -79 122 -193 160 -255 39 -62 84 -132 100 -155 l31 -41 129 -3 c123 -2 128 -2 113 15 -9 10 -65 97 -125 193 -266 424 -407 647 -425 673 l-19 27 -133 0 c-114 0 -135 -2 -148 -17z"/>
    <path d="M9930 3985 l0 -456 518 3 c512 3 518 3 574 26 114 46 148 96 148 217 0 108 -28 153 -120 193 -39 17 -42 21 -25 27 40 15 87 58 101 91 8 18 14 62 14 98 0 50 -6 75 -28 117 -24 47 -37 58 -92 87 -40 20 -92 36 -135 42 -38 5 -269 10 -512 10 l-443 0 0 -455z m700 275 l218 0 31 -26 c27 -22 31 -33 31 -73 0 -58 -20 -87 -68 -101 -22 -6 -170 -10 -364 -10 l-328 0 0 105 0 104 103 4 c56 2 115 2 131 0 16 -2 127 -3 246 -3z m254 -374 c44 -18 66 -52 66 -99 0 -47 -31 -81 -86 -96 -24 -7 -166 -11 -376 -11 l-338 0 0 110 0 110 350 0 c277 0 358 -3 384 -14z"/>
    <path d="M7160 4348 c-1 -46 -2 -247 -3 -448 l-2 -365 461 -3 c362 -2 463 1 471 10 12 17 33 89 33 117 l0 21 -370 0 -370 0 0 375 0 375 -110 0 -110 0 0 -82z"/>
  </g>
</svg>

